# xmcd
#
# Track frame offsets: 
#        150
#        14092
#        27321
#        39505
#        49596
#        63620
#        74559
#        89600
#        102851
#        118910
#        129414
#        141973
#        153275
#        166550
#        175372
#
# Disc length: 2499 seconds
#
# Revision: 0
# Processed by: cddbd v1.5.2PL0 Copyright (c) Steve Scherf et al.
# Submitted via: ExactAudioCopyFreeDBPlugin 1.0
#
DISCID=d309c10f
DTITLE=Various Artist - The Country Jukebox_Always Wanting You CD1
DYEAR=2014
DGENRE=Country
TTITLE0=Kenny Rogers and Dottie West - All I Ever Need Is You
TTITLE1=Crystal Gayle - Why Have You Left The One You Left Me For
TTITLE2=George Jones - A Girl I Used To Know
TTITLE3=Willie Nelson - Touch Me
TTITLE4=Merle Haggard - Always Wanting You
TTITLE5=Stoney Edwards - She’s My Rock
TTITLE6=Gene Watson - Love in the Hot Afternoon
TTITLE7=Glen Campbell - Honey Come Back
TTITLE8=Crystal Gayle - I’ll Get Over You
TTITLE9=Ferlin Husky - Just for You
TTITLE10=Jimmy Wakely - One Has My Name (The Other Has My Heart)
TTITLE11=The Louvin Brothers - When I Stop Dreaming
TTITLE12=Sonny James - It’s the Little Things
TTITLE13=Faron Young - Alone with You
TTITLE14=Jimmy Heap - Release Me
EXTD=
EXTT0=
EXTT1=
EXTT2=
EXTT3=
EXTT4=
EXTT5=
EXTT6=
EXTT7=
EXTT8=
EXTT9=
EXTT10=
EXTT11=
EXTT12=
EXTT13=
EXTT14=
PLAYORDER=
